ffmpeg started on 2025-05-28 at 21:45:08
Report written to "D:\Convert\FFMetrics\reports\ssim_report-6.txt"
Log level: 32
Command line:
ffmpeg -hide_banner -nostdin -i "G:\\\xc0\xed\xe8\xec\xe5\\\xce\xed\xe3\xee\xe8\xed\xe3\xe8\\!_36_\xce\xf1\xe5\xed\xfc_2024\\JamClub\\\xcb\xfe\xe1\xee\xe2\xfc \xcc\xf3\xf0\xe0\xe8\\JamClub_Murai_no_Koi_11_1080p_HEVC.mkv" -i "G:\\\xc0\xed\xe8\xec\xe5\\\xce\xed\xe3\xee\xe8\xed\xe3\xe8\\!_36_\xce\xf1\xe5\xed\xfc_2024\\JamClub\\\xcb\xfe\xe1\xee\xe2\xfc \xcc\xf3\xf0\xe0\xe8\\JamClub_Murai_no_Koi_11_1080p.mp4" -lavfi "[0:v]settb=AVTB,setpts=PTS-STARTPTS,format=pix_fmts=yuv420p10,fps=24000/1001,scale=1920:1080:flags=bicubic[main];[1:v]settb=AVTB,setpts=PTS-STARTPTS,format=pix_fmts=yuv420p,fps=24000/1001,scale=1920:1080:flags=bicubic[ref];[main][ref]ssim=eof_action=endall:stats_file='D\\:/Convert/FFMetrics/logs/ssim_logfile-6.txt'" -f null -
Input #0, matroska,webm, from 'G:\Аниме\Онгоинги\!_36_Осень_2024\JamClub\Любовь Мураи\JamClub_Murai_no_Koi_11_1080p_HEVC.mkv':
  Metadata:
    COMPATIBLE_BRANDS: isomiso2avc1mp41
    MAJOR_BRAND     : isom
    MINOR_VERSION   : 512
    ENCODER         : Lavf61.7.100
  Duration: 00:24:04.29, start: -0.021000, bitrate: 1818 kb/s
  Stream #0:0: Video: hevc (Main 10), yuv420p10le(tv, bt709, progressive), 1920x1080 [SAR 1:1 DAR 16:9], 23.98 fps, 23.98 tbr, 1k tbn (default)
      Metadata:
        HANDLER_NAME    : VideoHandler
        VENDOR_ID       : [0][0][0][0]
        ENCODER         : Lavc61.19.100 libx265
        BPS             : 1619938
        DURATION        : 00:24:04.192708333
        NUMBER_OF_FRAMES: 34626
        NUMBER_OF_BYTES : 292437699
        _STATISTICS_WRITING_APP: mkvpropedit v66.0.0 ('Josie') 64-bit
        _STATISTICS_WRITING_DATE_UTC: 2025-05-28 13:51:51
        _STATISTICS_TAGS: BPS DURATION NUMBER_OF_FRAMES NUMBER_OF_BYTES
  Stream #0:1(eng): Audio: aac (LC), 48000 Hz, stereo, fltp (default)
      Metadata:
        HANDLER_NAME    : SoundHandler
        VENDOR_ID       : [0][0][0][0]
        ENCODER         : Lavc61.19.100 aac
        BPS             : 194521
        DURATION        : 00:24:04.269000000
        NUMBER_OF_FRAMES: 67701
        NUMBER_OF_BYTES : 35117677
        _STATISTICS_WRITING_APP: mkvpropedit v66.0.0 ('Josie') 64-bit
        _STATISTICS_WRITING_DATE_UTC: 2025-05-28 13:51:51
        _STATISTICS_TAGS: BPS DURATION NUMBER_OF_FRAMES NUMBER_OF_BYTES
Input #1, mov,mp4,m4a,3gp,3g2,mj2, from 'G:\Аниме\Онгоинги\!_36_Осень_2024\JamClub\Любовь Мураи\JamClub_Murai_no_Koi_11_1080p.mp4':
  Metadata:
    major_brand     : isom
    minor_version   : 512
    compatible_brands: isomiso2avc1mp41
    encoder         : Lavf60.16.100
  Duration: 00:24:04.27, start: 0.000000, bitrate: 5022 kb/s
  Stream #1:0[0x1](und): Video: h264 (High) (avc1 / 0x31637661), yuv420p(tv, bt709, progressive), 1920x1080 [SAR 1:1 DAR 16:9], 4824 kb/s, 23.98 fps, 23.98 tbr, 90k tbn (default)
      Metadata:
        handler_name    : VideoHandler
        vendor_id       : [0][0][0][0]
  Stream #1:1[0x2](eng): Audio: aac (LC) (mp4a / 0x6134706D), 48000 Hz, stereo, fltp, 191 kb/s (default)
      Metadata:
        handler_name    : SoundHandler
        vendor_id       : [0][0][0][0]
Stream mapping:
  Stream #0:0 (hevc) -> settb:default
  Stream #1:0 (h264) -> settb:default
  ssim:default -> Stream #0:0 (wrapped_avframe)
  Stream #0:1 -> #0:1 (aac (native) -> pcm_s16le (native))
Output #0, null, to 'pipe:':
  Metadata:
    COMPATIBLE_BRANDS: isomiso2avc1mp41
    MAJOR_BRAND     : isom
    MINOR_VERSION   : 512
    encoder         : Lavf61.7.100
  Stream #0:0: Video: wrapped_avframe, yuv420p10le(tv, bt709, progressive), 1920x1080 [SAR 1:1 DAR 16:9], q=2-31, 200 kb/s, 23.98 fps, 23.98 tbn
      Metadata:
        encoder         : Lavc61.19.100 wrapped_avframe
  Stream #0:1(eng): Audio: pcm_s16le, 48000 Hz, stereo, s16, 1536 kb/s (default)
      Metadata:
        HANDLER_NAME    : SoundHandler
        VENDOR_ID       : [0][0][0][0]
        _STATISTICS_TAGS: BPS DURATION NUMBER_OF_FRAMES NUMBER_OF_BYTES
        BPS             : 194521
        DURATION        : 00:24:04.269000000
        NUMBER_OF_FRAMES: 67701
        NUMBER_OF_BYTES : 35117677
        _STATISTICS_WRITING_APP: mkvpropedit v66.0.0 ('Josie') 64-bit
        _STATISTICS_WRITING_DATE_UTC: 2025-05-28 13:51:51
        encoder         : Lavc61.19.100 pcm_s16le
frame=  123 fps=0.0 q=-0.0 size=N/A time=00:00:05.13 bitrate=N/A speed=9.82x    frame=  292 fps=283 q=-0.0 size=N/A time=00:00:12.17 bitrate=N/A speed=11.8x    frame=  515 fps=332 q=-0.0 size=N/A time=00:00:21.47 bitrate=N/A speed=13.8x    frame=  693 fps=337 q=-0.0 size=N/A time=00:00:28.90 bitrate=N/A speed=  14x    frame=  858 fps=332 q=-0.0 size=N/A time=00:00:35.78 bitrate=N/A speed=13.9x    frame= 1001 fps=324 q=-0.0 size=N/A time=00:00:41.75 bitrate=N/A speed=13.5x    frame= 1166 fps=323 q=-0.0 size=N/A time=00:00:48.63 bitrate=N/A speed=13.5x    frame= 1383 fps=335 q=-0.0 size=N/A time=00:00:57.68 bitrate=N/A speed=  14x    frame= 1510 fps=325 q=-0.0 size=N/A time=00:01:02.97 bitrate=N/A speed=13.6x    frame= 1733 fps=336 q=-0.0 size=N/A time=00:01:12.28 bitrate=N/A speed=  14x    frame= 1901 fps=336 q=-0.0 size=N/A time=00:01:19.28 bitrate=N/A speed=  14x    frame= 2043 fps=330 q=-0.0 size=N/A time=00:01:25.21 bitrate=N/A speed=13.8x    frame= 2197 fps=328 q=-0.0 size=N/A time=00:01:31.63 bitrate=N/A speed=13.7x    frame= 2390 fps=331 q=-0.0 size=N/A time=00:01:39.68 bitrate=N/A speed=13.8x    frame= 2598 fps=336 q=-0.0 size=N/A time=00:01:48.35 bitrate=N/A speed=  14x    frame= 2837 fps=344 q=-0.0 size=N/A time=00:01:58.32 bitrate=N/A speed=14.3x    frame= 3122 fps=356 q=-0.0 size=N/A time=00:02:10.21 bitrate=N/A speed=14.8x    frame= 3351 fps=361 q=-0.0 size=N/A time=00:02:19.76 bitrate=N/A speed=15.1x    frame= 3579 fps=365 q=-0.0 size=N/A time=00:02:29.27 bitrate=N/A speed=15.2x    frame= 3843 fps=372 q=-0.0 size=N/A time=00:02:40.28 bitrate=N/A speed=15.5x    frame= 4125 fps=381 q=-0.0 size=N/A time=00:02:52.04 bitrate=N/A speed=15.9x    frame= 4370 fps=385 q=-0.0 size=N/A time=00:03:02.26 bitrate=N/A speed=16.1x    frame= 4605 fps=388 q=-0.0 size=N/A time=00:03:12.06 bitrate=N/A speed=16.2x    frame= 4816 fps=389 q=-0.0 size=N/A time=00:03:20.86 bitrate=N/A speed=16.2x    frame= 5063 fps=393 q=-0.0 size=N/A time=00:03:31.16 bitrate=N/A speed=16.4x    frame= 5321 fps=397 q=-0.0 size=N/A time=00:03:41.93 bitrate=N/A speed=16.6x    frame= 5585 fps=401 q=-0.0 size=N/A time=00:03:52.94 bitrate=N/A speed=16.7x    frame= 5783 fps=400 q=-0.0 size=N/A time=00:04:01.19 bitrate=N/A speed=16.7x    frame= 6017 fps=402 q=-0.0 size=N/A time=00:04:10.95 bitrate=N/A speed=16.8x    frame= 6287 fps=406 q=-0.0 size=N/A time=00:04:22.22 bitrate=N/A speed=16.9x    frame= 6543 fps=409 q=-0.0 size=N/A time=00:04:32.89 bitrate=N/A speed=17.1x    frame= 6818 fps=413 q=-0.0 size=N/A time=00:04:44.36 bitrate=N/A speed=17.2x    frame= 7095 fps=417 q=-0.0 size=N/A time=00:04:55.92 bitrate=N/A speed=17.4x    frame= 7365 fps=420 q=-0.0 size=N/A time=00:05:07.14 bitrate=N/A speed=17.5x    frame= 7620 fps=422 q=-0.0 size=N/A time=00:05:17.81 bitrate=N/A speed=17.6x    frame= 7854 fps=423 q=-0.0 size=N/A time=00:05:27.57 bitrate=N/A speed=17.6x    frame= 8087 fps=424 q=-0.0 size=N/A time=00:05:37.29 bitrate=N/A speed=17.7x    frame= 8361 fps=426 q=-0.0 size=N/A time=00:05:48.72 bitrate=N/A speed=17.8x    frame= 8621 fps=428 q=-0.0 size=N/A time=00:05:59.56 bitrate=N/A speed=17.9x    frame= 8880 fps=430 q=-0.0 size=N/A time=00:06:10.37 bitrate=N/A speed=17.9x    frame= 9172 fps=433 q=-0.0 size=N/A time=00:06:22.54 bitrate=N/A speed=18.1x    frame= 9444 fps=436 q=-0.0 size=N/A time=00:06:33.89 bitrate=N/A speed=18.2x    frame= 9695 fps=437 q=-0.0 size=N/A time=00:06:44.36 bitrate=N/A speed=18.2x    frame= 9923 fps=437 q=-0.0 size=N/A time=00:06:53.87 bitrate=N/A speed=18.2x    frame=10119 fps=436 q=-0.0 size=N/A time=00:07:02.04 bitrate=N/A speed=18.2x    frame=10375 fps=437 q=-0.0 size=N/A time=00:07:12.72 bitrate=N/A speed=18.2x    frame=10597 fps=437 q=-0.0 size=N/A time=00:07:21.98 bitrate=N/A speed=18.2x    frame=10831 fps=437 q=-0.0 size=N/A time=00:07:31.74 bitrate=N/A speed=18.2x    frame=11095 fps=439 q=-0.0 size=N/A time=00:07:42.75 bitrate=N/A speed=18.3x    frame=11326 fps=439 q=-0.0 size=N/A time=00:07:52.38 bitrate=N/A speed=18.3x    frame=11549 fps=439 q=-0.0 size=N/A time=00:08:01.68 bitrate=N/A speed=18.3x    frame=11751 fps=438 q=-0.0 size=N/A time=00:08:10.11 bitrate=N/A speed=18.3x    frame=12022 fps=439 q=-0.0 size=N/A time=00:08:21.41 bitrate=N/A speed=18.3x    frame=12286 fps=441 q=-0.0 size=N/A time=00:08:32.42 bitrate=N/A speed=18.4x    frame=12551 fps=442 q=-0.0 size=N/A time=00:08:43.48 bitrate=N/A speed=18.4x    frame=12801 fps=443 q=-0.0 size=N/A time=00:08:53.90 bitrate=N/A speed=18.5x    frame=13059 fps=444 q=-0.0 size=N/A time=00:09:04.66 bitrate=N/A speed=18.5x    frame=13319 fps=445 q=-0.0 size=N/A time=00:09:15.51 bitrate=N/A speed=18.6x    frame=13581 fps=446 q=-0.0 size=N/A time=00:09:26.44 bitrate=N/A speed=18.6x    frame=13852 fps=447 q=-0.0 size=N/A time=00:09:37.74 bitrate=N/A speed=18.6x    frame=14079 fps=447 q=-0.0 size=N/A time=00:09:47.21 bitrate=N/A speed=18.6x    frame=14318 fps=447 q=-0.0 size=N/A time=00:09:57.17 bitrate=N/A speed=18.7x    frame=14559 fps=448 q=-0.0 size=N/A time=00:10:07.23 bitrate=N/A speed=18.7x    frame=14843 fps=449 q=-0.0 size=N/A time=00:10:19.07 bitrate=N/A speed=18.7x    frame=15062 fps=449 q=-0.0 size=N/A time=00:10:28.21 bitrate=N/A speed=18.7x    frame=15276 fps=448 q=-0.0 size=N/A time=00:10:37.13 bitrate=N/A speed=18.7x    frame=15502 fps=448 q=-0.0 size=N/A time=00:10:46.56 bitrate=N/A speed=18.7x    frame=15754 fps=449 q=-0.0 size=N/A time=00:10:57.07 bitrate=N/A speed=18.7x    frame=15979 fps=449 q=-0.0 size=N/A time=00:11:06.45 bitrate=N/A speed=18.7x    frame=16214 fps=449 q=-0.0 size=N/A time=00:11:16.25 bitrate=N/A speed=18.7x    frame=16456 fps=449 q=-0.0 size=N/A time=00:11:26.35 bitrate=N/A speed=18.7x    frame=16718 fps=450 q=-0.0 size=N/A time=00:11:37.27 bitrate=N/A speed=18.8x    frame=16975 fps=450 q=-0.0 size=N/A time=00:11:47.99 bitrate=N/A speed=18.8x    frame=17210 fps=451 q=-0.0 size=N/A time=00:11:57.80 bitrate=N/A speed=18.8x    frame=17504 fps=452 q=-0.0 size=N/A time=00:12:10.06 bitrate=N/A speed=18.9x    frame=17795 fps=453 q=-0.0 size=N/A time=00:12:22.19 bitrate=N/A speed=18.9x    frame=18057 fps=454 q=-0.0 size=N/A time=00:12:33.12 bitrate=N/A speed=18.9x    frame=18304 fps=454 q=-0.0 size=N/A time=00:12:43.42 bitrate=N/A speed=18.9x    frame=18564 fps=455 q=-0.0 size=N/A time=00:12:54.27 bitrate=N/A speed=  19x    frame=18807 fps=455 q=-0.0 size=N/A time=00:13:04.40 bitrate=N/A speed=  19x    frame=19042 fps=455 q=-0.0 size=N/A time=00:13:14.21 bitrate=N/A speed=  19x    frame=19287 fps=455 q=-0.0 size=N/A time=00:13:24.42 bitrate=N/A speed=  19x    frame=19562 fps=456 q=-0.0 size=N/A time=00:13:35.89 bitrate=N/A speed=  19x    frame=19769 fps=456 q=-0.0 size=N/A time=00:13:44.53 bitrate=N/A speed=  19x    frame=20037 fps=457 q=-0.0 size=N/A time=00:13:55.70 bitrate=N/A speed=  19x    frame=20282 fps=457 q=-0.0 size=N/A time=00:14:05.92 bitrate=N/A speed=  19x    frame=20550 fps=457 q=-0.0 size=N/A time=00:14:17.10 bitrate=N/A speed=19.1x    frame=20808 fps=458 q=-0.0 size=N/A time=00:14:27.86 bitrate=N/A speed=19.1x    frame=21078 fps=459 q=-0.0 size=N/A time=00:14:39.12 bitrate=N/A speed=19.1x    frame=21362 fps=460 q=-0.0 size=N/A time=00:14:50.97 bitrate=N/A speed=19.2x    frame=21616 fps=460 q=-0.0 size=N/A time=00:15:01.56 bitrate=N/A speed=19.2x    frame=21868 fps=460 q=-0.0 size=N/A time=00:15:12.07 bitrate=N/A speed=19.2x    frame=22124 fps=461 q=-0.0 size=N/A time=00:15:22.75 bitrate=N/A speed=19.2x    frame=22377 fps=461 q=-0.0 size=N/A time=00:15:33.30 bitrate=N/A speed=19.2x    frame=22612 fps=461 q=-0.0 size=N/A time=00:15:43.10 bitrate=N/A speed=19.2x    frame=22857 fps=461 q=-0.0 size=N/A time=00:15:53.32 bitrate=N/A speed=19.2x    frame=23143 fps=462 q=-0.0 size=N/A time=00:16:05.25 bitrate=N/A speed=19.3x    frame=23344 fps=461 q=-0.0 size=N/A time=00:16:13.63 bitrate=N/A speed=19.2x    frame=23608 fps=462 q=-0.0 size=N/A time=00:16:24.65 bitrate=N/A speed=19.3x    frame=23862 fps=462 q=-0.0 size=N/A time=00:16:35.24 bitrate=N/A speed=19.3x    frame=24099 fps=462 q=-0.0 size=N/A time=00:16:45.12 bitrate=N/A speed=19.3x    frame=24322 fps=462 q=-0.0 size=N/A time=00:16:54.43 bitrate=N/A speed=19.3x    frame=24548 fps=462 q=-0.0 size=N/A time=00:17:03.85 bitrate=N/A speed=19.3x    frame=24788 fps=462 q=-0.0 size=N/A time=00:17:13.86 bitrate=N/A speed=19.3x    frame=25013 fps=461 q=-0.0 size=N/A time=00:17:23.25 bitrate=N/A speed=19.2x    frame=25259 fps=462 q=-0.0 size=N/A time=00:17:33.51 bitrate=N/A speed=19.3x    frame=25489 fps=461 q=-0.0 size=N/A time=00:17:43.10 bitrate=N/A speed=19.2x    frame=25734 fps=462 q=-0.0 size=N/A time=00:17:53.32 bitrate=N/A speed=19.3x    frame=25926 fps=461 q=-0.0 size=N/A time=00:18:01.33 bitrate=N/A speed=19.2x    frame=26152 fps=461 q=-0.0 size=N/A time=00:18:10.75 bitrate=N/A speed=19.2x    frame=26383 fps=460 q=-0.0 size=N/A time=00:18:20.39 bitrate=N/A speed=19.2x    frame=26619 fps=460 q=-0.0 size=N/A time=00:18:30.23 bitrate=N/A speed=19.2x    frame=26868 fps=461 q=-0.0 size=N/A time=00:18:40.61 bitrate=N/A speed=19.2x    frame=27094 fps=460 q=-0.0 size=N/A time=00:18:50.04 bitrate=N/A speed=19.2x    frame=27276 fps=460 q=-0.0 size=N/A time=00:18:57.63 bitrate=N/A speed=19.2x    frame=27510 fps=459 q=-0.0 size=N/A time=00:19:07.39 bitrate=N/A speed=19.2x    frame=27703 fps=459 q=-0.0 size=N/A time=00:19:15.44 bitrate=N/A speed=19.1x    frame=27885 fps=458 q=-0.0 size=N/A time=00:19:23.03 bitrate=N/A speed=19.1x    frame=28069 fps=457 q=-0.0 size=N/A time=00:19:30.71 bitrate=N/A speed=19.1x    frame=28288 fps=457 q=-0.0 size=N/A time=00:19:39.84 bitrate=N/A speed=  19x    frame=28503 fps=456 q=-0.0 size=N/A time=00:19:48.81 bitrate=N/A speed=  19x    frame=28642 fps=455 q=-0.0 size=N/A time=00:19:54.61 bitrate=N/A speed=  19x    frame=28896 fps=455 q=-0.0 size=N/A time=00:20:05.20 bitrate=N/A speed=  19x    frame=29110 fps=455 q=-0.0 size=N/A time=00:20:14.12 bitrate=N/A speed=  19x    frame=29330 fps=455 q=-0.0 size=N/A time=00:20:23.30 bitrate=N/A speed=  19x    frame=29596 fps=455 q=-0.0 size=N/A time=00:20:34.39 bitrate=N/A speed=  19x    frame=29824 fps=455 q=-0.0 size=N/A time=00:20:43.90 bitrate=N/A speed=  19x    frame=30036 fps=455 q=-0.0 size=N/A time=00:20:52.75 bitrate=N/A speed=  19x    frame=30271 fps=455 q=-0.0 size=N/A time=00:21:02.55 bitrate=N/A speed=  19x    frame=30507 fps=455 q=-0.0 size=N/A time=00:21:12.39 bitrate=N/A speed=  19x    frame=30732 fps=455 q=-0.0 size=N/A time=00:21:21.78 bitrate=N/A speed=  19x    frame=30956 fps=454 q=-0.0 size=N/A time=00:21:31.12 bitrate=N/A speed=  19x    frame=31203 fps=455 q=-0.0 size=N/A time=00:21:41.42 bitrate=N/A speed=  19x    frame=31426 fps=454 q=-0.0 size=N/A time=00:21:50.72 bitrate=N/A speed=18.9x    frame=31634 fps=454 q=-0.0 size=N/A time=00:21:59.40 bitrate=N/A speed=18.9x    frame=31839 fps=454 q=-0.0 size=N/A time=00:22:07.95 bitrate=N/A speed=18.9x    frame=32076 fps=454 q=-0.0 size=N/A time=00:22:17.83 bitrate=N/A speed=18.9x    frame=32316 fps=454 q=-0.0 size=N/A time=00:22:27.84 bitrate=N/A speed=18.9x    frame=32499 fps=453 q=-0.0 size=N/A time=00:22:35.47 bitrate=N/A speed=18.9x    frame=32673 fps=452 q=-0.0 size=N/A time=00:22:42.73 bitrate=N/A speed=18.9x    frame=32899 fps=452 q=-0.0 size=N/A time=00:22:52.16 bitrate=N/A speed=18.9x    frame=33107 fps=452 q=-0.0 size=N/A time=00:23:00.83 bitrate=N/A speed=18.8x    frame=33290 fps=451 q=-0.0 size=N/A time=00:23:08.47 bitrate=N/A speed=18.8x    frame=33470 fps=450 q=-0.0 size=N/A time=00:23:15.97 bitrate=N/A speed=18.8x    frame=33667 fps=450 q=-0.0 size=N/A time=00:23:24.19 bitrate=N/A speed=18.8x    frame=33840 fps=449 q=-0.0 size=N/A time=00:23:31.41 bitrate=N/A speed=18.7x    frame=34020 fps=448 q=-0.0 size=N/A time=00:23:38.91 bitrate=N/A speed=18.7x    frame=34171 fps=447 q=-0.0 size=N/A time=00:23:45.21 bitrate=N/A speed=18.7x    frame=34321 fps=446 q=-0.0 size=N/A time=00:23:51.47 bitrate=N/A speed=18.6x    frame=34483 fps=445 q=-0.0 size=N/A time=00:23:58.22 bitrate=N/A speed=18.6x    [Parsed_ssim_10 @ 00000202503c2880] SSIM Y:0.991701 (20.809991) U:0.993529 (21.890207) V:0.993873 (22.127810) All:0.992368 (21.173634)
[out#0/null @ 000002024cc706c0] video:14878KiB audio:270804KiB subtitle:0KiB other streams:0KiB global headers:0KiB muxing overhead: unknown
frame=34626 fps=446 q=-0.0 Lsize=N/A time=00:24:04.19 bitrate=N/A speed=18.6x    
